<?xml version="1.0" encoding="UTF-8"?>
<svg xmlns="http://www.w3.org/2000/svg" id="Layer_3" data-name="Layer 3" viewBox="0 0 64 64" width="512" height="512"><path d="M60,1a3,3,0,0,0-3,3V20H55V12a1,1,0,0,0-1-1H50a1,1,0,0,0-1,1v3H41V12a1,1,0,0,0-1-1H36a1,1,0,0,0-1,1v8H23V19a3,3,0,0,0-3-3H12a3,3,0,0,0-3,3v1H7V4A3,3,0,0,0,1,4V62a1,1,0,0,0,1,1H6a1,1,0,0,0,1-1V53H27.184A3,3,0,0,0,30,55h5v7a1,1,0,0,0,1,1h4a1,1,0,0,0,1-1V57h8v5a1,1,0,0,0,1,1h4a1,1,0,0,0,1-1V53h2v9a1,1,0,0,0,1,1h4a1,1,0,0,0,1-1V4A3,3,0,0,0,60,1ZM5,61H3V4A1,1,0,0,1,5,4ZM23,45V44a3,3,0,0,0-3-3H12a3,3,0,0,0-3,3v1H7V28H27.184A3,3,0,0,0,30,30h5V45Zm-2,0H11V44a1,1,0,0,1,1-1h8a1,1,0,0,1,1,1Zm9-17a1,1,0,0,1-1-1V22h6v6ZM11,19a1,1,0,0,1,1-1h8a1,1,0,0,1,1,1v1H11Zm-1,3H27v4H7V22ZM7,47H27v4H7Zm23,6a1,1,0,0,1-1-1V47h6v6ZM49,31H41V25h8Zm0,2v6H41V33Zm0,8v4H41V41Zm0,6v4H41V47Zm0-30v6H41V17ZM39,61H37V13h2Zm2-6V53h8v2Zm12,6H51V13h2Zm4-39v4H55V22Zm0,6V45H55V28ZM55,51V47h2v4Zm6,10H59V4a1,1,0,0,1,2,0Z"/></svg>
